# xmcd
#
# Track frame offsets:
#	150
#	21319
#	38781
#	50887
#	71096
#	87035
#	101445
#
# Disc length: 1633 seconds
#
# Revision: 1
# Processed by: cddbd v1.5.2PL0 Copyright (c) Steve Scherf et al.
# Submitted via: audiograbber 1.83.01
#
DISCID=59065f07
DTITLE=Band Of Friends - Too Much Is Not Enough
DYEAR=2013
DGENRE=Blues
TTITLE0=Dreamcatcher
TTITLE1=Leap Of Faith
TTITLE2=I Don't Cry
TTITLE3=Body And Soul
TTITLE4=Sing It With The Band
TTITLE5=Succubus
TTITLE6=If I Had A Reason
EXTD=
EXTT0=
EXTT1=
EXTT2=
EXTT3=
EXTT4=
EXTT5=
EXTT6=
PLAYORDER=
